<svg width="49" height="48" viewBox="0 0 49 48" fill="none" xmlns="http://www.w3.org/2000/svg">
<rect x="0.333984" width="48" height="48" rx="24" fill="url(#paint0_linear_498_73)"/>
<path d="M24.334 21L16.3978 26.1585C15.71 26.6056 15.3661 26.8291 15.247 27.1126C15.1429 27.3604 15.1429 27.6396 15.247 27.8874M24.334 21L32.2701 26.1585C32.958 26.6056 33.3019 26.8291 33.421 27.1126C33.5251 27.3604 33.5251 27.6396 33.421 27.8874M24.334 21V14.5M24.334 27L16.3978 21.8415C15.71 21.3944 15.3661 21.1709 15.247 20.8874C15.1429 20.6396 15.1429 20.3604 15.247 20.1126M24.334 27L32.2701 21.8415C32.958 21.3944 33.3019 21.1709 33.421 20.8874C33.5251 20.6396 33.5251 20.3604 33.421 20.1126M24.334 27V33.5M33.606 27.9732L25.206 33.4332C24.8903 33.6384 24.7325 33.7409 24.5625 33.7809C24.4122 33.8161 24.2558 33.8161 24.1055 33.7809C23.9354 33.7409 23.7776 33.6384 23.462 33.4332L15.062 27.9732C14.796 27.8003 14.663 27.7139 14.5666 27.5985C14.4813 27.4965 14.4173 27.3784 14.3782 27.2512C14.334 27.1076 14.334 26.949 14.334 26.6317V21.3683C14.334 21.051 14.334 20.8924 14.3782 20.7488C14.4173 20.6216 14.4813 20.5035 14.5666 20.4015C14.663 20.2861 14.796 20.1997 15.062 20.0268L23.462 14.5668C23.7776 14.3616 23.9354 14.2591 24.1055 14.2191C24.2558 14.1839 24.4122 14.1839 24.5625 14.2191C24.7325 14.2591 24.8903 14.3616 25.206 14.5668L33.606 20.0268C33.872 20.1997 34.005 20.2861 34.1013 20.4015C34.1866 20.5035 34.2507 20.6216 34.2898 20.7488C34.334 20.8924 34.334 21.051 34.334 21.3683V26.6317C34.334 26.949 34.334 27.1076 34.2898 27.2512C34.2507 27.3784 34.1866 27.4965 34.1013 27.5985C34.005 27.7139 33.872 27.8003 33.606 27.9732Z" stroke="white" stroke-width="2" stroke-linecap="round" stroke-linejoin="round"/>
<defs>
<linearGradient id="paint0_linear_498_73" x1="24.334" y1="0" x2="24.334" y2="48" gradientUnits="userSpaceOnUse">
<stop stop-color="#E7FFBC"/>
<stop offset="1" stop-color="#76B900"/>
</linearGradient>
</defs>
</svg>
