<svg width="49" height="48" viewBox="0 0 49 48" fill="none" xmlns="http://www.w3.org/2000/svg">
<rect x="0.667969" width="48" height="48" rx="24" fill="url(#paint0_linear_498_206)"/>
<path d="M21.068 15H17.268C16.7079 15 16.4279 15 16.214 15.109C16.0258 15.2049 15.8728 15.3578 15.777 15.546C15.668 15.7599 15.668 16.0399 15.668 16.6V20.4C15.668 20.9601 15.668 21.2401 15.777 21.454C15.8728 21.6422 16.0258 21.7951 16.214 21.891C16.4279 22 16.7079 22 17.268 22H21.068C21.628 22 21.908 22 22.122 21.891C22.3101 21.7951 22.4631 21.6422 22.559 21.454C22.668 21.2401 22.668 20.9601 22.668 20.4V16.6C22.668 16.0399 22.668 15.7599 22.559 15.546C22.4631 15.3578 22.3101 15.2049 22.122 15.109C21.908 15 21.628 15 21.068 15Z" stroke="white" stroke-width="2" stroke-linecap="round" stroke-linejoin="round"/>
<path d="M32.068 15H28.268C27.7079 15 27.4279 15 27.214 15.109C27.0258 15.2049 26.8728 15.3578 26.777 15.546C26.668 15.7599 26.668 16.0399 26.668 16.6V20.4C26.668 20.9601 26.668 21.2401 26.777 21.454C26.8728 21.6422 27.0258 21.7951 27.214 21.891C27.4279 22 27.7079 22 28.268 22H32.068C32.628 22 32.908 22 33.122 21.891C33.3101 21.7951 33.4631 21.6422 33.559 21.454C33.668 21.2401 33.668 20.9601 33.668 20.4V16.6C33.668 16.0399 33.668 15.7599 33.559 15.546C33.4631 15.3578 33.3101 15.2049 33.122 15.109C32.908 15 32.628 15 32.068 15Z" stroke="white" stroke-width="2" stroke-linecap="round" stroke-linejoin="round"/>
<path d="M32.068 26H28.268C27.7079 26 27.4279 26 27.214 26.109C27.0258 26.2049 26.8728 26.3578 26.777 26.546C26.668 26.7599 26.668 27.0399 26.668 27.6V31.4C26.668 31.9601 26.668 32.2401 26.777 32.454C26.8728 32.6422 27.0258 32.7951 27.214 32.891C27.4279 33 27.7079 33 28.268 33H32.068C32.628 33 32.908 33 33.122 32.891C33.3101 32.7951 33.4631 32.6422 33.559 32.454C33.668 32.2401 33.668 31.9601 33.668 31.4V27.6C33.668 27.0399 33.668 26.7599 33.559 26.546C33.4631 26.3578 33.3101 26.2049 33.122 26.109C32.908 26 32.628 26 32.068 26Z" stroke="white" stroke-width="2" stroke-linecap="round" stroke-linejoin="round"/>
<path d="M21.068 26H17.268C16.7079 26 16.4279 26 16.214 26.109C16.0258 26.2049 15.8728 26.3578 15.777 26.546C15.668 26.7599 15.668 27.0399 15.668 27.6V31.4C15.668 31.9601 15.668 32.2401 15.777 32.454C15.8728 32.6422 16.0258 32.7951 16.214 32.891C16.4279 33 16.7079 33 17.268 33H21.068C21.628 33 21.908 33 22.122 32.891C22.3101 32.7951 22.4631 32.6422 22.559 32.454C22.668 32.2401 22.668 31.9601 22.668 31.4V27.6C22.668 27.0399 22.668 26.7599 22.559 26.546C22.4631 26.3578 22.3101 26.2049 22.122 26.109C21.908 26 21.628 26 21.068 26Z" stroke="white" stroke-width="2" stroke-linecap="round" stroke-linejoin="round"/>
<defs>
<linearGradient id="paint0_linear_498_206" x1="24.668" y1="0" x2="24.668" y2="48" gradientUnits="userSpaceOnUse">
<stop stop-color="#E7FFBC"/>
<stop offset="1" stop-color="#76B900"/>
</linearGradient>
</defs>
</svg>
