<svg width="48" height="48" viewBox="0 0 48 48" fill="none" xmlns="http://www.w3.org/2000/svg">
<rect width="48" height="48" rx="24" fill="url(#paint0_linear_498_161)"/>
<path d="M19 23V20C19 17.2386 21.2386 15 24 15C26.419 15 28.4367 16.7178 28.9 19M19.8 33H28.2C29.8802 33 30.7202 33 31.362 32.673C31.9265 32.3854 32.3854 31.9265 32.673 31.362C33 30.7202 33 29.8802 33 28.2V27.8C33 26.1198 33 25.2798 32.673 24.638C32.3854 24.0735 31.9265 23.6146 31.362 23.327C30.7202 23 29.8802 23 28.2 23H19.8C18.1198 23 17.2798 23 16.638 23.327C16.0735 23.6146 15.6146 24.0735 15.327 24.638C15 25.2798 15 26.1198 15 27.8V28.2C15 29.8802 15 30.7202 15.327 31.362C15.6146 31.9265 16.0735 32.3854 16.638 32.673C17.2798 33 18.1198 33 19.8 33Z" stroke="white" stroke-width="2" stroke-linecap="round" stroke-linejoin="round"/>
<defs>
<linearGradient id="paint0_linear_498_161" x1="24" y1="0" x2="24" y2="48" gradientUnits="userSpaceOnUse">
<stop stop-color="#E7FFBC"/>
<stop offset="1" stop-color="#76B900"/>
</linearGradient>
</defs>
</svg>
