<svg width="49" height="49" viewBox="0 0 49 49" fill="none" xmlns="http://www.w3.org/2000/svg">
<rect width="48.4494" height="48.4494" rx="10.8593" fill="url(#paint0_linear_459_1061)"/>
<path d="M22.666 13.3333C21.966 13.3333 21.4993 13.8 21.4993 14.5V35.5C21.4993 36.2 21.966 36.6667 22.666 36.6667C23.366 36.6667 23.8327 36.2 23.8327 35.5V14.5C23.8327 13.8 23.366 13.3333 22.666 13.3333ZM16.8327 25C16.1327 25 15.666 25.4667 15.666 26.1667V35.5C15.666 36.2 16.1327 36.6667 16.8327 36.6667C17.5327 36.6667 17.9993 36.2 17.9993 35.5V26.1667C17.9993 25.4667 17.5327 25 16.8327 25ZM28.4993 20.3333C27.7993 20.3333 27.3327 20.8 27.3327 21.5V35.5C27.3327 36.2 27.7993 36.6667 28.4993 36.6667C29.1994 36.6667 29.666 36.2 29.666 35.5V21.5C29.666 20.8 29.1994 20.3333 28.4993 20.3333ZM34.3327 29.6667C33.6327 29.6667 33.166 30.1333 33.166 30.8333V35.5C33.166 36.2 33.6327 36.6667 34.3327 36.6667C35.0327 36.6667 35.4993 36.2 35.4993 35.5V30.8333C35.4993 30.1333 35.0327 29.6667 34.3327 29.6667Z" fill="#131517"/>
<defs>
<linearGradient id="paint0_linear_459_1061" x1="24.2247" y1="0" x2="24.2247" y2="48.4494" gradientUnits="userSpaceOnUse">
<stop stop-color="#E7FFBC"/>
<stop offset="1" stop-color="#76B900"/>
</linearGradient>
</defs>
</svg>
