<svg width="49" height="49" viewBox="0 0 49 49" fill="none" xmlns="http://www.w3.org/2000/svg">
<rect width="48.4494" height="48.4494" rx="10.8593" fill="url(#paint0_linear_459_1142)"/>
<g clip-path="url(#clip0_459_1142)">
<path d="M34.9993 17.6836C34.7317 17.6213 34.4603 17.5766 34.1868 17.5499C33.8108 15.6452 32.8521 13.9044 31.4434 12.5684C30.0346 11.2325 28.2455 10.3674 26.3235 10.0928C24.4016 9.81822 22.4418 10.1478 20.7153 11.0359C18.9889 11.9239 17.5811 13.3267 16.6868 15.0499C16.1105 15.1196 15.5442 15.2559 14.9993 15.4561C13.538 15.9691 12.2721 16.9232 11.3766 18.1867C10.481 19.4501 10 20.9606 10 22.5093C10 24.058 10.481 25.5684 11.3766 26.8319C12.2721 28.0954 13.538 29.0495 14.9993 29.5624V26.8074C14.2395 26.3724 13.6082 25.7445 13.1691 24.9871C12.7299 24.2297 12.4987 23.3697 12.4987 22.4943C12.4987 21.6188 12.7299 20.7589 13.1691 20.0015C13.6082 19.2441 14.2395 18.6161 14.9993 18.1811C15.5962 17.8305 16.261 17.6111 16.9493 17.5374L18.2868 17.3999L18.9118 16.2124C19.5649 14.9472 20.5955 13.9166 21.8608 13.2636C23.126 12.6106 24.5631 12.3675 25.9727 12.5681C27.3824 12.7687 28.6946 13.403 29.7275 14.383C30.7603 15.3631 31.4626 16.6402 31.7368 18.0374L32.1118 19.9124L34.0243 20.0499C34.3574 20.0774 34.6853 20.1493 34.9993 20.2636C35.7288 20.5145 36.3618 20.9868 36.8098 21.6147C37.2579 22.2426 37.4988 22.9948 37.4988 23.7661C37.4988 24.5375 37.2579 25.2897 36.8098 25.9176C36.3618 26.5455 35.7288 27.0178 34.9993 27.2686V29.8736C36.4089 29.5926 37.6775 28.8316 38.5891 27.7203C39.5007 26.6089 39.9989 25.216 39.9989 23.7786C39.9989 22.3413 39.5007 20.9484 38.5891 19.837C37.6775 18.7257 36.4089 17.9647 34.9993 17.6836Z" fill="#131517"/>
<path d="M17.5 22.5V28.75H32.5V22.5H17.5ZM26.25 26.25H18.75V25H26.25V26.25ZM28.125 26.25C28.0014 26.25 27.8805 26.2133 27.7778 26.1447C27.675 26.076 27.5949 25.9784 27.5476 25.8642C27.5003 25.75 27.4879 25.6243 27.512 25.5031C27.5361 25.3818 27.5956 25.2705 27.6831 25.1831C27.7705 25.0956 27.8818 25.0361 28.0031 25.012C28.1243 24.9879 28.25 25.0003 28.3642 25.0476C28.4784 25.0949 28.576 25.175 28.6447 25.2778C28.7133 25.3805 28.75 25.5014 28.75 25.625C28.75 25.7908 28.6842 25.9497 28.5669 26.0669C28.4497 26.1842 28.2908 26.25 28.125 26.25ZM30.625 26.25C30.5014 26.25 30.3806 26.2133 30.2778 26.1447C30.175 26.076 30.0949 25.9784 30.0476 25.8642C30.0003 25.75 29.9879 25.6243 30.012 25.5031C30.0361 25.3818 30.0956 25.2705 30.1831 25.1831C30.2705 25.0956 30.3818 25.0361 30.5031 25.012C30.6243 24.9879 30.75 25.0003 30.8642 25.0476C30.9784 25.0949 31.076 25.175 31.1447 25.2778C31.2133 25.3805 31.25 25.5014 31.25 25.625C31.25 25.7908 31.1842 25.9497 31.0669 26.0669C30.9497 26.1842 30.7908 26.25 30.625 26.25ZM17.5 31.25V37.5H32.5V31.25H17.5ZM26.25 35H18.75V33.75H26.25V35ZM28.125 35C28.0014 35 27.8805 34.9633 27.7778 34.8947C27.675 34.826 27.5949 34.7284 27.5476 34.6142C27.5003 34.5 27.4879 34.3743 27.512 34.2531C27.5361 34.1318 27.5956 34.0205 27.6831 33.9331C27.7705 33.8456 27.8818 33.7861 28.0031 33.762C28.1243 33.7379 28.25 33.7503 28.3642 33.7976C28.4784 33.8449 28.576 33.925 28.6447 34.0278C28.7133 34.1306 28.75 34.2514 28.75 34.375C28.75 34.5408 28.6842 34.6997 28.5669 34.8169C28.4497 34.9342 28.2908 35 28.125 35ZM30.625 35C30.5014 35 30.3806 34.9633 30.2778 34.8947C30.175 34.826 30.0949 34.7284 30.0476 34.6142C30.0003 34.5 29.9879 34.3743 30.012 34.2531C30.0361 34.1318 30.0956 34.0205 30.1831 33.9331C30.2705 33.8456 30.3818 33.7861 30.5031 33.762C30.6243 33.7379 30.75 33.7503 30.8642 33.7976C30.9784 33.8449 31.076 33.925 31.1447 34.0278C31.2133 34.1306 31.25 34.2514 31.25 34.375C31.25 34.5408 31.1842 34.6997 31.0669 34.8169C30.9497 34.9342 30.7908 35 30.625 35Z" fill="#131517"/>
</g>
<defs>
<linearGradient id="paint0_linear_459_1142" x1="24.2247" y1="0" x2="24.2247" y2="48.4494" gradientUnits="userSpaceOnUse">
<stop stop-color="#E7FFBC"/>
<stop offset="1" stop-color="#76B900"/>
</linearGradient>
<clipPath id="clip0_459_1142">
<rect width="30" height="30" fill="white" transform="translate(10 10)"/>
</clipPath>
</defs>
</svg>
