<svg width="49" height="49" viewBox="0 0 49 49" fill="none" xmlns="http://www.w3.org/2000/svg">
<rect width="48.4494" height="48.4494" rx="10.8593" fill="url(#paint0_linear_459_1150)"/>
<path d="M33.047 23.75H25.7083C24.8795 23.75 24.0846 23.4208 23.4986 22.8347C22.9125 22.2487 22.5833 21.4538 22.5833 20.625V16.955C22.5833 16.1262 22.9125 15.3314 23.4986 14.7453C24.0846 14.1593 24.8795 13.83 25.7083 13.83H33.047C33.8758 13.83 34.6707 14.1593 35.2567 14.7453C35.8428 15.3314 36.172 16.1262 36.172 16.955V20.625C36.172 21.4538 35.8428 22.2487 35.2567 22.8347C34.6707 23.4208 33.8758 23.75 33.047 23.75ZM25.7083 15.08C25.211 15.08 24.7341 15.2776 24.3825 15.6292C24.0308 15.9808 23.8333 16.4577 23.8333 16.955V20.625C23.8333 21.1223 24.0308 21.5992 24.3825 21.9508C24.7341 22.3025 25.211 22.5 25.7083 22.5H33.047C33.5443 22.5 34.0212 22.3025 34.3729 21.9508C34.7245 21.5992 34.922 21.1223 34.922 20.625V16.955C34.922 16.4577 34.7245 15.9808 34.3729 15.6292C34.0212 15.2776 33.5443 15.08 33.047 15.08H25.7083ZM16.957 23.75C16.1282 23.75 15.3334 23.4208 14.7473 22.8347C14.1613 22.2487 13.832 21.4538 13.832 20.625V16.955C13.832 16.1262 14.1613 15.3314 14.7473 14.7453C15.3334 14.1593 16.1282 13.83 16.957 13.83C17.7858 13.83 18.5807 14.1593 19.1667 14.7453C19.7528 15.3314 20.082 16.1262 20.082 16.955V20.625C20.082 21.0354 20.0012 21.4418 19.8442 21.8209C19.6871 22.2 19.4569 22.5445 19.1667 22.8347C18.8766 23.1249 18.5321 23.3551 18.1529 23.5121C17.7738 23.6692 17.3674 23.75 16.957 23.75ZM16.957 15.0825C16.4598 15.0825 15.9828 15.2801 15.6312 15.6317C15.2796 15.9833 15.082 16.4602 15.082 16.9575V20.625C15.082 21.1223 15.2796 21.5992 15.6312 21.9508C15.9828 22.3025 16.4598 22.5 16.957 22.5C17.4543 22.5 17.9312 22.3025 18.2829 21.9508C18.6345 21.5992 18.832 21.1223 18.832 20.625V16.955C18.832 16.4577 18.6345 15.9808 18.2829 15.6292C17.9312 15.2776 17.4543 15.08 16.957 15.08V15.0825ZM33.047 36.17H16.957C16.1282 36.17 15.3334 35.8408 14.7473 35.2547C14.1613 34.6687 13.832 33.8738 13.832 33.045V29.375C13.832 28.5462 14.1613 27.7514 14.7473 27.1653C15.3334 26.5793 16.1282 26.25 16.957 26.25H33.047C33.8758 26.25 34.6707 26.5793 35.2567 27.1653C35.8428 27.7514 36.172 28.5462 36.172 29.375V33.0425C36.1724 33.4531 36.0918 33.8597 35.9349 34.2392C35.778 34.6186 35.5478 34.9634 35.2576 35.2538C34.9674 35.5443 34.6228 35.7747 34.2435 35.9319C33.8642 36.0891 33.4576 36.17 33.047 36.17ZM16.957 27.5C16.4598 27.5 15.9828 27.6976 15.6312 28.0492C15.2796 28.4008 15.082 28.8777 15.082 29.375V33.0425C15.082 33.5398 15.2796 34.0167 15.6312 34.3683C15.9828 34.72 16.4598 34.9175 16.957 34.9175H33.047C33.5443 34.9175 34.0212 34.72 34.3729 34.3683C34.7245 34.0167 34.922 33.5398 34.922 33.0425V29.375C34.922 28.8777 34.7245 28.4008 34.3729 28.0492C34.0212 27.6976 33.5443 27.5 33.047 27.5H16.957Z" fill="#131517"/>
<defs>
<linearGradient id="paint0_linear_459_1150" x1="24.2247" y1="0" x2="24.2247" y2="48.4494" gradientUnits="userSpaceOnUse">
<stop stop-color="#E7FFBC"/>
<stop offset="1" stop-color="#76B900"/>
</linearGradient>
</defs>
</svg>
