<svg width="49" height="49" viewBox="0 0 49 49" fill="none" xmlns="http://www.w3.org/2000/svg">
<rect width="48.4494" height="48.4494" rx="10.8593" fill="url(#paint0_linear_459_1158)"/>
<path d="M23.196 10.1396V17.7244H24.3705V10.1395H23.196L23.196 10.1396ZM16.0075 10.181C14.9777 10.181 14.1419 11.0168 14.1419 12.0466C14.1419 13.0763 14.9777 13.9101 16.0075 13.9101C16.8479 13.9101 17.5574 13.3542 17.7901 12.5903H20.7742V17.7244H21.9488V11.4158H17.763C17.5048 10.6961 16.8159 10.181 16.0075 10.181ZM28.8405 10.181C27.8107 10.181 26.9769 11.0168 26.9769 12.0466C26.9769 12.8517 27.4867 13.5374 28.2015 13.7981V17.7243H29.3739V13.8334C30.1439 13.6041 30.7062 12.8909 30.7062 12.0467C30.7062 11.0168 29.8703 10.181 28.8406 10.181H28.8405ZM25.6716 14.1426V17.7244H26.8441V14.1426H25.6717H25.6716ZM38.1913 14.4102C37.1615 14.4102 36.3257 15.2461 36.3257 16.2759C36.3257 17.1447 36.9199 17.8745 37.7244 18.0813V19.9054H31.5527V21.0779H38.8989V18.0005C39.5777 17.7221 40.0548 17.0553 40.0548 16.2759C40.0548 15.2462 39.2209 14.4103 38.1912 14.4103L38.1913 14.4102ZM10.0039 16.2116V17.3862H14.4241V21.078H18.5953V19.9053H15.5987V16.2115L10.0039 16.2116ZM19.7677 18.899V29.5053H30.3801V18.8989H19.7678L19.7677 18.899ZM20.9338 19.9386H22.1064V25.1578L24.2584 27.3098H29.2575V28.4824H23.7708L23.5985 28.3101L22.8847 27.5963C22.8161 28.0867 22.3959 28.4637 21.8866 28.4637C21.3293 28.4637 20.8779 28.0124 20.8779 27.4552C20.8779 26.945 21.2561 26.5268 21.7475 26.4591L21.1063 25.8177L20.934 25.6455V19.9385L20.9338 19.9386ZM24.5822 19.9491H25.7567V23.6222H29.245L29.2451 24.7968H24.5823V19.9491L24.5822 19.9491ZM11.5271 22.435V28.4096C10.7641 28.6428 10.2093 29.3524 10.2093 30.1922C10.2093 31.2218 11.0432 32.0577 12.0729 32.0577C13.1027 32.0577 13.9385 31.2219 13.9385 30.1922C13.9385 29.3824 13.4212 28.6938 12.6996 28.4366V23.6075H18.5953V22.4351H11.5271V22.435ZM31.5527 22.435V23.6075H35.1365V22.4351H31.5526L31.5527 22.435ZM38.1912 23.894C37.4675 23.894 36.8404 24.3064 36.5311 24.9087H31.5526L31.5527 26.0833H36.3548C36.5092 26.9577 37.2728 27.623 38.1913 27.623C39.2211 27.623 40.0549 26.7871 40.0549 25.7574C40.0549 24.7277 39.221 23.8939 38.1912 23.8939V23.894ZM15.0113 24.9087V26.0833H18.5953V24.9087H15.0113ZM16.1506 27.3305V32.9231C15.3871 33.1563 14.8308 33.866 14.8308 34.7057C14.8308 35.7354 15.6666 36.5713 16.6964 36.5713C17.7261 36.5713 18.5598 35.7354 18.5598 34.7057C18.5598 33.8959 18.044 33.2073 17.323 32.9501V28.5048H18.5951V27.3304H16.1507L16.1506 27.3305ZM31.5527 27.3305V28.505H34.5514V34.8324C33.7995 35.073 33.2545 35.7793 33.2545 36.6107C33.2543 37.6404 34.0902 38.4743 35.1199 38.4743C36.1497 38.4743 36.9835 37.6404 36.9835 36.6108C36.9835 35.7927 36.4566 35.0982 35.7238 34.8468V27.3305H31.5525H31.5527ZM20.7742 30.6797V34.2678H21.9488V30.6797H20.7742ZM23.196 30.6797V36.4281C22.4647 36.6801 21.9383 37.3733 21.9383 38.1899C21.9383 39.2196 22.7742 40.0555 23.804 40.0555C24.8337 40.0555 25.6675 39.2195 25.6675 38.1899C25.6675 37.3578 25.1228 36.6532 24.3705 36.4135V30.6797H23.196ZM25.6717 30.6797V34.2678H26.8463L26.8441 30.6798H25.6717L25.6717 30.6797ZM28.2013 30.6797V39.9808H29.3737V30.6797H28.2014H28.2013Z" fill="#131517"/>
<defs>
<linearGradient id="paint0_linear_459_1158" x1="24.2247" y1="0" x2="24.2247" y2="48.4494" gradientUnits="userSpaceOnUse">
<stop stop-color="#E7FFBC"/>
<stop offset="1" stop-color="#76B900"/>
</linearGradient>
</defs>
</svg>
