<svg width="49" height="49" viewBox="0 0 49 49" fill="none" xmlns="http://www.w3.org/2000/svg">
<rect width="48.4494" height="48.4494" rx="10.8593" fill="url(#paint0_linear_459_1069)"/>
<path d="M35.5007 34.3333H32.0007C31.6913 34.3333 31.3946 34.2104 31.1758 33.9916C30.957 33.7728 30.8341 33.4761 30.8341 33.1667V29.6667C32.2266 29.6538 33.5686 29.1432 34.6175 28.2271C35.6664 27.311 36.3529 26.0499 36.553 24.6718C36.7531 23.2936 36.4536 21.8893 35.7085 20.7128C34.9635 19.5362 33.8221 18.665 32.4907 18.2567C31.7779 16.6187 30.5476 15.2596 28.9885 14.3877C27.4293 13.5158 25.6273 13.1791 23.8585 13.4294C22.0897 13.6796 20.4518 14.5029 19.1957 15.773C17.9396 17.0432 17.1346 18.6902 16.9041 20.4617C15.7917 20.7281 14.816 21.3936 14.1621 22.3321C13.5082 23.2705 13.2217 24.4164 13.357 25.5521C13.4923 26.6878 14.04 27.7343 14.8961 28.4928C15.7521 29.2514 16.857 29.6691 18.0007 29.6667H19.1674V33.1667C19.1674 33.4761 19.0445 33.7728 18.8257 33.9916C18.6069 34.2104 18.3101 34.3333 18.0007 34.3333H14.5007C14.1913 34.3333 13.8946 34.4563 13.6758 34.6751C13.457 34.8938 13.3341 35.1906 13.3341 35.5C13.3341 35.8094 13.457 36.1062 13.6758 36.325C13.8946 36.5438 14.1913 36.6667 14.5007 36.6667H18.0007C18.929 36.6667 19.8192 36.2979 20.4756 35.6416C21.132 34.9852 21.5007 34.0949 21.5007 33.1667V29.6667H23.8341V35.5C23.8341 35.8094 23.957 36.1062 24.1758 36.325C24.3946 36.5438 24.6913 36.6667 25.0007 36.6667C25.3101 36.6667 25.6069 36.5438 25.8257 36.325C26.0445 36.1062 26.1674 35.8094 26.1674 35.5V29.6667H28.5007V33.1667C28.5007 34.0949 28.8695 34.9852 29.5259 35.6416C30.1822 36.2979 31.0725 36.6667 32.0007 36.6667H35.5007C35.8101 36.6667 36.1069 36.5438 36.3257 36.325C36.5445 36.1062 36.6674 35.8094 36.6674 35.5C36.6674 35.1906 36.5445 34.8938 36.3257 34.6751C36.1069 34.4563 35.8101 34.3333 35.5007 34.3333ZM18.0007 27.3333C17.3819 27.3333 16.7884 27.0875 16.3508 26.6499C15.9132 26.2123 15.6674 25.6188 15.6674 25C15.6674 24.3812 15.9132 23.7877 16.3508 23.3501C16.7884 22.9125 17.3819 22.6667 18.0007 22.6667C18.3101 22.6667 18.6069 22.5438 18.8257 22.325C19.0445 22.1062 19.1674 21.8094 19.1674 21.5C19.1704 20.1202 19.6624 18.7861 20.556 17.7347C21.4497 16.6833 22.6871 15.9828 24.0484 15.7575C25.4098 15.5323 26.8069 15.7969 27.9916 16.5044C29.1762 17.2118 30.0718 18.3163 30.5191 19.6217C30.5857 19.8222 30.7056 20.0008 30.8659 20.1384C31.0262 20.2761 31.2208 20.3677 31.4291 20.4033C32.2389 20.543 32.9738 20.9633 33.5049 21.5904C34.0361 22.2175 34.3296 23.0115 34.3341 23.8333C34.3341 24.7616 33.9653 25.6518 33.3089 26.3082C32.6526 26.9646 31.7623 27.3333 30.8341 27.3333H18.0007Z" fill="#131517"/>
<defs>
<linearGradient id="paint0_linear_459_1069" x1="24.2247" y1="0" x2="24.2247" y2="48.4494" gradientUnits="userSpaceOnUse">
<stop stop-color="#E7FFBC"/>
<stop offset="1" stop-color="#76B900"/>
</linearGradient>
</defs>
</svg>
