<svg width="49" height="49" viewBox="0 0 49 49" fill="none" xmlns="http://www.w3.org/2000/svg">
<rect width="48.4494" height="48.4494" rx="10.8593" fill="url(#paint0_linear_459_1085)"/>
<path fill-rule="evenodd" clip-rule="evenodd" d="M27.4101 20.2627C25.8079 20.085 24.191 20.085 22.5888 20.2627C21.3914 20.396 20.4208 21.34 20.2794 22.552C20.0891 24.1785 20.0891 25.8216 20.2794 27.448C20.4208 28.6613 21.3914 29.6027 22.5888 29.7373C24.1781 29.9147 25.8208 29.9147 27.4101 29.7373C27.9971 29.6728 28.5448 29.4113 28.9642 28.9956C29.3836 28.5799 29.6498 28.0344 29.7194 27.448C29.9101 25.8213 29.9101 24.1787 29.7194 22.552C29.6498 21.9656 29.3836 21.4201 28.9642 21.0044C28.5448 20.5887 27.9971 20.3272 27.4101 20.2627ZM22.8101 22.2507C24.2528 22.0907 25.7461 22.0907 27.1888 22.2507C27.3262 22.2659 27.4546 22.3266 27.5534 22.4233C27.6523 22.52 27.7159 22.647 27.7341 22.784C27.9061 24.256 27.9061 25.744 27.7341 27.216C27.7158 27.3533 27.652 27.4804 27.5529 27.5771C27.4538 27.6738 27.3251 27.7344 27.1874 27.7493C25.7327 27.9095 24.2648 27.9095 22.8101 27.7493C22.6727 27.7342 22.5443 27.6734 22.4455 27.5767C22.3466 27.4801 22.283 27.3531 22.2648 27.216C22.0925 25.7437 22.0925 24.2563 22.2648 22.784C22.2831 22.6468 22.3469 22.5196 22.446 22.4229C22.5451 22.3262 22.6738 22.2656 22.8114 22.2507" fill="#131517"/>
<path fill-rule="evenodd" clip-rule="evenodd" d="M30 13C30 12.7348 29.8946 12.4804 29.7071 12.2929C29.5196 12.1054 29.2652 12 29 12C28.7348 12 28.4804 12.1054 28.2929 12.2929C28.1054 12.4804 28 12.7348 28 13V16.3653C27.3342 16.3186 26.6673 16.2875 26 16.272V14.3333C26 14.0681 25.8946 13.8138 25.7071 13.6262C25.5196 13.4387 25.2652 13.3333 25 13.3333C24.7348 13.3333 24.4804 13.4387 24.2929 13.6262C24.1054 13.8138 24 14.0681 24 14.3333V16.272C23.3327 16.2875 22.6658 16.3186 22 16.3653V13C22 12.7348 21.8946 12.4804 21.7071 12.2929C21.5196 12.1054 21.2652 12 21 12C20.7348 12 20.4804 12.1054 20.2929 12.2929C20.1054 12.4804 20 12.7348 20 13V16.5627C19.1476 16.718 18.3633 17.1307 17.7525 17.7452C17.1418 18.3598 16.734 19.1467 16.584 20H13C12.7348 20 12.4804 20.1054 12.2929 20.2929C12.1054 20.4804 12 20.7348 12 21C12 21.2652 12.1054 21.5196 12.2929 21.7071C12.4804 21.8946 12.7348 22 13 22H16.3827C16.3347 22.6667 16.3022 23.3333 16.2853 24H14.3333C14.0681 24 13.8138 24.1054 13.6262 24.2929C13.4387 24.4804 13.3333 24.7348 13.3333 25C13.3333 25.2652 13.4387 25.5196 13.6262 25.7071C13.8138 25.8946 14.0681 26 14.3333 26H16.2853C16.3031 26.6667 16.3356 27.3333 16.3827 28H13C12.7348 28 12.4804 28.1054 12.2929 28.2929C12.1054 28.4804 12 28.7348 12 29C12 29.2652 12.1054 29.5196 12.2929 29.7071C12.4804 29.8946 12.7348 30 13 30H16.584C16.734 30.8533 17.1418 31.6402 17.7525 32.2548C18.3633 32.8693 19.1476 33.282 20 33.4373V37C20 37.2652 20.1054 37.5196 20.2929 37.7071C20.4804 37.8946 20.7348 38 21 38C21.2652 38 21.5196 37.8946 21.7071 37.7071C21.8946 37.5196 22 37.2652 22 37V33.6347C22.6649 33.6818 23.3316 33.7129 24 33.728V35.6667C24 35.9319 24.1054 36.1862 24.2929 36.3738C24.4804 36.5613 24.7348 36.6667 25 36.6667C25.2652 36.6667 25.5196 36.5613 25.7071 36.3738C25.8946 36.1862 26 35.9319 26 35.6667V33.728C26.6673 33.7125 27.3342 33.6814 28 33.6347V37C28 37.2652 28.1054 37.5196 28.2929 37.7071C28.4804 37.8946 28.7348 38 29 38C29.2652 38 29.5196 37.8946 29.7071 37.7071C29.8946 37.5196 30 37.2652 30 37V33.4373C30.8524 33.282 31.6367 32.8693 32.2475 32.2548C32.8582 31.6402 33.266 30.8533 33.416 30H37C37.2652 30 37.5196 29.8946 37.7071 29.7071C37.8946 29.5196 38 29.2652 38 29C38 28.7348 37.8946 28.4804 37.7071 28.2929C37.5196 28.1054 37.2652 28 37 28H33.6173C33.6653 27.3333 33.6978 26.6667 33.7147 26H35.6667C35.9319 26 36.1862 25.8946 36.3738 25.7071C36.5613 25.5196 36.6667 25.2652 36.6667 25C36.6667 24.7348 36.5613 24.4804 36.3738 24.2929C36.1862 24.1054 35.9319 24 35.6667 24H33.7147C33.6969 23.3333 33.6644 22.6667 33.6173 22H37C37.2652 22 37.5196 21.8946 37.7071 21.7071C37.8946 21.5196 38 21.2652 38 21C38 20.7348 37.8946 20.4804 37.7071 20.2929C37.5196 20.1054 37.2652 20 37 20H33.416C33.266 19.1467 32.8582 18.3598 32.2475 17.7452C31.6367 17.1307 30.8524 16.718 30 16.5627V13ZM20.5107 18.5067C23.4944 18.1763 26.5056 18.1763 29.4893 18.5067C30.52 18.6227 31.3427 19.4373 31.4613 20.452C31.8143 23.4737 31.8143 26.5263 31.4613 29.548C31.3981 30.0464 31.1691 30.509 30.8112 30.8616C30.4533 31.2142 29.9873 31.4362 29.488 31.492C26.5047 31.8222 23.494 31.8222 20.5107 31.492C20.0116 31.4359 19.5459 31.2138 19.1883 30.8612C18.8307 30.5087 18.6019 30.0462 18.5387 29.548C18.1857 26.5263 18.1857 23.4737 18.5387 20.452C18.6019 19.9536 18.8309 19.491 19.1888 19.1384C19.5467 18.7858 20.0127 18.5638 20.512 18.508" fill="#131517"/>
<defs>
<linearGradient id="paint0_linear_459_1085" x1="24.2247" y1="0" x2="24.2247" y2="48.4494" gradientUnits="userSpaceOnUse">
<stop stop-color="#E7FFBC"/>
<stop offset="1" stop-color="#76B900"/>
</linearGradient>
</defs>
</svg>
