<svg width="49" height="49" viewBox="0 0 49 49" fill="none" xmlns="http://www.w3.org/2000/svg">
<rect y="0.5" width="48.4494" height="48.4494" rx="10.8593" fill="url(#paint0_linear_459_1098)"/>
<path d="M19.803 20.0781V18.0107C20.0153 17.9898 20.2068 17.9898 20.4208 17.9898C26.1115 17.8192 29.841 22.8921 29.841 22.8921C29.841 22.8921 25.8122 28.4558 21.4876 28.4558C20.9098 28.4558 20.3564 28.3688 19.803 28.1774V21.8897C22.0184 22.1682 22.4656 23.1253 23.7883 25.3425L26.7502 22.8486C26.7502 22.8486 24.5766 20.0155 20.9533 20.0155C20.5705 20.0155 20.187 20.0363 19.803 20.0781ZM19.803 13.2162V16.3069L20.4208 16.2634C28.3286 15.985 33.4868 22.7425 33.4868 22.7425C33.4868 22.7425 27.5612 29.9681 21.4006 29.9681C20.8644 29.9707 20.3293 29.9206 19.803 29.8185V31.738C20.2294 31.7798 20.6766 31.8233 21.1239 31.8233C26.8581 31.8233 31.0139 28.8822 35.0426 25.4295C35.704 25.962 38.431 27.262 39.007 27.8154C35.1906 31.0123 26.2821 33.5931 21.23 33.5931C20.7599 33.5958 20.2901 33.5667 19.8239 33.5061V36.2349H41.6279V13.2162H19.803ZM19.803 28.2V29.8411C14.4952 28.8822 13.0246 23.362 13.0246 23.362C13.0246 23.362 15.5828 20.548 19.803 20.0781V21.8706H19.7804C17.565 21.5922 15.816 23.6805 15.816 23.6805C15.816 23.6805 16.8202 27.1767 19.803 28.2ZM10.3794 23.1271C10.3794 23.1271 13.5136 18.4805 19.803 18.0107L19.8013 16.3278C12.8332 16.8812 6.82227 22.7651 6.82227 22.7651C6.82227 22.7651 10.2332 32.6325 19.803 33.527V31.738C12.7688 30.8644 10.3794 23.1271 10.3794 23.1271Z" fill="#131517"/>
<defs>
<linearGradient id="paint0_linear_459_1098" x1="24.2247" y1="0.5" x2="24.2247" y2="48.9494" gradientUnits="userSpaceOnUse">
<stop stop-color="#E7FFBC"/>
<stop offset="1" stop-color="#76B900"/>
</linearGradient>
</defs>
</svg>
