<svg width="49" height="49" viewBox="0 0 49 49" fill="none" xmlns="http://www.w3.org/2000/svg">
<rect width="48.4494" height="48.4494" rx="10.8593" fill="url(#paint0_linear_459_1106)"/>
<path d="M21.75 26C22.3467 26 22.919 26.2371 23.341 26.659C23.7629 27.081 24 27.6533 24 28.25V33.75C24 34.3467 23.7629 34.919 23.341 35.341C22.919 35.7629 22.3467 36 21.75 36H16.25C15.6533 36 15.081 35.7629 14.659 35.341C14.2371 34.919 14 34.3467 14 33.75V28.25C14 27.6533 14.2371 27.081 14.659 26.659C15.081 26.2371 15.6533 26 16.25 26H21.75ZM33.75 26C34.3467 26 34.919 26.2371 35.341 26.659C35.7629 27.081 36 27.6533 36 28.25V33.75C36 34.3467 35.7629 34.919 35.341 35.341C34.919 35.7629 34.3467 36 33.75 36H28.25C27.6533 36 27.081 35.7629 26.659 35.341C26.2371 34.919 26 34.3467 26 33.75V28.25C26 27.6533 26.2371 27.081 26.659 26.659C27.081 26.2371 27.6533 26 28.25 26H33.75ZM21.75 27.5H16.25C16.0511 27.5 15.8603 27.579 15.7197 27.7197C15.579 27.8603 15.5 28.0511 15.5 28.25V33.75C15.5 34.164 15.836 34.5 16.25 34.5H21.75C21.9489 34.5 22.1397 34.421 22.2803 34.2803C22.421 34.1397 22.5 33.9489 22.5 33.75V28.25C22.5 28.0511 22.421 27.8603 22.2803 27.7197C22.1397 27.579 21.9489 27.5 21.75 27.5ZM33.75 27.5H28.25C28.0511 27.5 27.8603 27.579 27.7197 27.7197C27.579 27.8603 27.5 28.0511 27.5 28.25V33.75C27.5 34.164 27.836 34.5 28.25 34.5H33.75C33.9489 34.5 34.1397 34.421 34.2803 34.2803C34.421 34.1397 34.5 33.9489 34.5 33.75V28.25C34.5 28.0511 34.421 27.8603 34.2803 27.7197C34.1397 27.579 33.9489 27.5 33.75 27.5ZM21.75 14C22.3467 14 22.919 14.2371 23.341 14.659C23.7629 15.081 24 15.6533 24 16.25V21.75C24 22.3467 23.7629 22.919 23.341 23.341C22.919 23.7629 22.3467 24 21.75 24H16.25C15.6533 24 15.081 23.7629 14.659 23.341C14.2371 22.919 14 22.3467 14 21.75V16.25C14 15.6533 14.2371 15.081 14.659 14.659C15.081 14.2371 15.6533 14 16.25 14H21.75ZM33.75 14C34.3467 14 34.919 14.2371 35.341 14.659C35.7629 15.081 36 15.6533 36 16.25V21.75C36 22.3467 35.7629 22.919 35.341 23.341C34.919 23.7629 34.3467 24 33.75 24H28.25C27.6533 24 27.081 23.7629 26.659 23.341C26.2371 22.919 26 22.3467 26 21.75V16.25C26 15.6533 26.2371 15.081 26.659 14.659C27.081 14.2371 27.6533 14 28.25 14H33.75ZM21.75 15.5H16.25C16.0511 15.5 15.8603 15.579 15.7197 15.7197C15.579 15.8603 15.5 16.0511 15.5 16.25V21.75C15.5 22.164 15.836 22.5 16.25 22.5H21.75C21.9489 22.5 22.1397 22.421 22.2803 22.2803C22.421 22.1397 22.5 21.9489 22.5 21.75V16.25C22.5 16.0511 22.421 15.8603 22.2803 15.7197C22.1397 15.579 21.9489 15.5 21.75 15.5ZM33.75 15.5H28.25C28.0511 15.5 27.8603 15.579 27.7197 15.7197C27.579 15.8603 27.5 16.0511 27.5 16.25V21.75C27.5 22.164 27.836 22.5 28.25 22.5H33.75C33.9489 22.5 34.1397 22.421 34.2803 22.2803C34.421 22.1397 34.5 21.9489 34.5 21.75V16.25C34.5 16.0511 34.421 15.8603 34.2803 15.7197C34.1397 15.579 33.9489 15.5 33.75 15.5Z" fill="#131517"/>
<defs>
<linearGradient id="paint0_linear_459_1106" x1="24.2247" y1="0" x2="24.2247" y2="48.4494" gradientUnits="userSpaceOnUse">
<stop stop-color="#E7FFBC"/>
<stop offset="1" stop-color="#76B900"/>
</linearGradient>
</defs>
</svg>
