<svg width="49" height="49" viewBox="0 0 49 49" fill="none" xmlns="http://www.w3.org/2000/svg">
<rect y="0.5" width="48.4494" height="48.4494" rx="10.8593" fill="url(#paint0_linear_459_1114)"/>
<path d="M34.7507 33.6667H31.5007C31.2134 33.6667 30.9378 33.5525 30.7346 33.3494C30.5315 33.1462 30.4173 32.8706 30.4173 32.5833V29.3333C31.7104 29.3214 32.9566 28.8473 33.9305 27.9966C34.9045 27.146 35.542 25.9749 35.7278 24.6952C35.9136 23.4155 35.6355 22.1115 34.9437 21.019C34.2518 19.9265 33.192 19.1175 31.9557 18.7383C31.2938 17.2173 30.1514 15.9553 28.7036 15.1457C27.2558 14.3361 25.5825 14.0235 23.9401 14.2558C22.2976 14.4882 20.7767 15.2527 19.6103 16.4321C18.4439 17.6116 17.6964 19.1409 17.4823 20.7858C16.4495 21.0332 15.5434 21.6512 14.9362 22.5226C14.329 23.394 14.063 24.458 14.1886 25.5126C14.3143 26.5673 14.8229 27.539 15.6178 28.2433C16.4127 28.9477 17.4386 29.3356 18.5007 29.3333H19.584V32.5833C19.584 32.8706 19.4699 33.1462 19.2667 33.3494C19.0635 33.5525 18.788 33.6667 18.5007 33.6667H15.2507C14.9634 33.6667 14.6878 33.7808 14.4846 33.984C14.2815 34.1871 14.1673 34.4627 14.1673 34.75C14.1673 35.0373 14.2815 35.3129 14.4846 35.516C14.6878 35.7192 14.9634 35.8333 15.2507 35.8333H18.5007C19.3626 35.8333 20.1893 35.4909 20.7988 34.8814C21.4083 34.2719 21.7507 33.4453 21.7507 32.5833V29.3333H23.9173V34.75C23.9173 35.0373 24.0315 35.3129 24.2346 35.516C24.4378 35.7192 24.7134 35.8333 25.0007 35.8333C25.288 35.8333 25.5635 35.7192 25.7667 35.516C25.9699 35.3129 26.084 35.0373 26.084 34.75V29.3333H28.2507V32.5833C28.2507 33.4453 28.5931 34.2719 29.2026 34.8814C29.8121 35.4909 30.6387 35.8333 31.5007 35.8333H34.7507C35.038 35.8333 35.3135 35.7192 35.5167 35.516C35.7199 35.3129 35.834 35.0373 35.834 34.75C35.834 34.4627 35.7199 34.1871 35.5167 33.984C35.3135 33.7808 35.038 33.6667 34.7507 33.6667ZM18.5007 27.1667C17.926 27.1667 17.3749 26.9384 16.9686 26.5321C16.5623 26.1257 16.334 25.5746 16.334 25C16.334 24.4254 16.5623 23.8743 16.9686 23.4679C17.3749 23.0616 17.926 22.8333 18.5007 22.8333C18.788 22.8333 19.0635 22.7192 19.2667 22.516C19.4699 22.3129 19.584 22.0373 19.584 21.75C19.5868 20.4687 20.0437 19.2299 20.8735 18.2536C21.7033 17.2774 22.8523 16.6269 24.1164 16.4177C25.3805 16.2085 26.6778 16.4542 27.7779 17.1112C28.8779 17.7681 29.7095 18.7937 30.1248 20.0058C30.1868 20.192 30.2981 20.3578 30.4469 20.4857C30.5957 20.6135 30.7765 20.6985 30.9698 20.7317C31.7219 20.8614 32.4042 21.2516 32.8974 21.8339C33.3906 22.4162 33.6632 23.1536 33.6673 23.9167C33.6673 24.7786 33.3249 25.6053 32.7154 26.2148C32.1059 26.8243 31.2793 27.1667 30.4173 27.1667H18.5007Z" fill="#131517"/>
<defs>
<linearGradient id="paint0_linear_459_1114" x1="24.2247" y1="0.5" x2="24.2247" y2="48.9494" gradientUnits="userSpaceOnUse">
<stop stop-color="#E7FFBC"/>
<stop offset="1" stop-color="#76B900"/>
</linearGradient>
</defs>
</svg>
