<svg width="49" height="49" viewBox="0 0 49 49" fill="none" xmlns="http://www.w3.org/2000/svg">
<rect y="0.5" width="48.4494" height="48.4494" rx="10.8593" fill="url(#paint0_linear_459_1122)"/>
<path d="M16.834 27.3333C16.5246 27.3333 16.2278 27.4563 16.009 27.675C15.7902 27.8938 15.6673 28.1906 15.6673 28.5V33.1667C15.6673 33.4761 15.7902 33.7728 16.009 33.9916C16.2278 34.2104 16.5246 34.3333 16.834 34.3333H33.1673C33.4767 34.3333 33.7735 34.2104 33.9923 33.9916C34.2111 33.7728 34.334 33.4761 34.334 33.1667V28.5C34.334 28.1906 34.2111 27.8938 33.9923 27.675C33.7735 27.4563 33.4767 27.3333 33.1673 27.3333H16.834ZM16.834 25C15.9057 25 15.0155 24.6313 14.3591 23.9749C13.7027 23.3185 13.334 22.4283 13.334 21.5V16.8333C13.334 15.9051 13.7027 15.0148 14.3591 14.3585C15.0155 13.7021 15.9057 13.3333 16.834 13.3333H33.1673C34.0956 13.3333 34.9858 13.7021 35.6422 14.3585C36.2986 15.0148 36.6673 15.9051 36.6673 16.8333V21.5C36.6673 22.4283 36.2986 23.3185 35.6422 23.9749C34.9858 24.6313 34.0956 25 33.1673 25C34.0956 25 34.9858 25.3687 35.6422 26.0251C36.2986 26.6815 36.6673 27.5717 36.6673 28.5V33.1667C36.6673 34.0949 36.2986 34.9852 35.6422 35.6415C34.9858 36.2979 34.0956 36.6667 33.1673 36.6667H16.834C15.9057 36.6667 15.0155 36.2979 14.3591 35.6415C13.7027 34.9852 13.334 34.0949 13.334 33.1667V28.5C13.334 27.5717 13.7027 26.6815 14.3591 26.0251C15.0155 25.3687 15.9057 25 16.834 25ZM16.834 15.6667C16.5246 15.6667 16.2278 15.7896 16.009 16.0084C15.7902 16.2272 15.6673 16.5239 15.6673 16.8333V21.5C15.6673 21.8094 15.7902 22.1062 16.009 22.325C16.2278 22.5438 16.5246 22.6667 16.834 22.6667H33.1673C33.4767 22.6667 33.7735 22.5438 33.9923 22.325C34.2111 22.1062 34.334 21.8094 34.334 21.5V16.8333C34.334 16.5239 34.2111 16.2272 33.9923 16.0084C33.7735 15.7896 33.4767 15.6667 33.1673 15.6667H16.834ZM19.1673 20.3333C18.8579 20.3333 18.5612 20.2104 18.3424 19.9916C18.1236 19.7728 18.0007 19.4761 18.0007 19.1667C18.0007 18.8572 18.1236 18.5605 18.3424 18.3417C18.5612 18.1229 18.8579 18 19.1673 18C19.4767 18 19.7735 18.1229 19.9923 18.3417C20.2111 18.5605 20.334 18.8572 20.334 19.1667C20.334 19.4761 20.2111 19.7728 19.9923 19.9916C19.7735 20.2104 19.4767 20.3333 19.1673 20.3333ZM22.6673 20.3333C22.3579 20.3333 22.0612 20.2104 21.8424 19.9916C21.6236 19.7728 21.5007 19.4761 21.5007 19.1667C21.5007 18.8572 21.6236 18.5605 21.8424 18.3417C22.0612 18.1229 22.3579 18 22.6673 18C22.9767 18 23.2735 18.1229 23.4923 18.3417C23.7111 18.5605 23.834 18.8572 23.834 19.1667C23.834 19.4761 23.7111 19.7728 23.4923 19.9916C23.2735 20.2104 22.9767 20.3333 22.6673 20.3333ZM22.6673 32C22.3579 32 22.0612 31.8771 21.8424 31.6583C21.6236 31.4395 21.5007 31.1428 21.5007 30.8333C21.5007 30.5239 21.6236 30.2272 21.8424 30.0084C22.0612 29.7896 22.3579 29.6667 22.6673 29.6667C22.9767 29.6667 23.2735 29.7896 23.4923 30.0084C23.7111 30.2272 23.834 30.5239 23.834 30.8333C23.834 31.1428 23.7111 31.4395 23.4923 31.6583C23.2735 31.8771 22.9767 32 22.6673 32ZM19.1673 32C18.8579 32 18.5612 31.8771 18.3424 31.6583C18.1236 31.4395 18.0007 31.1428 18.0007 30.8333C18.0007 30.5239 18.1236 30.2272 18.3424 30.0084C18.5612 29.7896 18.8579 29.6667 19.1673 29.6667C19.4767 29.6667 19.7735 29.7896 19.9923 30.0084C20.2111 30.2272 20.334 30.5239 20.334 30.8333C20.334 31.1428 20.2111 31.4395 19.9923 31.6583C19.7735 31.8771 19.4767 32 19.1673 32Z" fill="#131517"/>
<defs>
<linearGradient id="paint0_linear_459_1122" x1="24.2247" y1="0.5" x2="24.2247" y2="48.9494" gradientUnits="userSpaceOnUse">
<stop stop-color="#E7FFBC"/>
<stop offset="1" stop-color="#76B900"/>
</linearGradient>
</defs>
</svg>
