<svg width="49" height="49" viewBox="0 0 49 49" fill="none" xmlns="http://www.w3.org/2000/svg">
<rect y="0.5" width="48.4494" height="48.4494" rx="10.8593" fill="url(#paint0_linear_459_1134)"/>
<path fill-rule="evenodd" clip-rule="evenodd" d="M24 20.625C22.8397 20.625 21.7269 21.0859 20.9064 21.9064C20.0859 22.7269 19.625 23.8397 19.625 25C19.625 26.1603 20.0859 27.2731 20.9064 28.0936C21.7269 28.9141 22.8397 29.375 24 29.375C25.1603 29.375 26.2731 28.9141 27.0936 28.0936C27.9141 27.2731 28.375 26.1603 28.375 25C28.375 23.8397 27.9141 22.7269 27.0936 21.9064C26.2731 21.0859 25.1603 20.625 24 20.625ZM21.375 25C21.375 24.3038 21.6516 23.6361 22.1438 23.1438C22.6361 22.6516 23.3038 22.375 24 22.375C24.6962 22.375 25.3639 22.6516 25.8562 23.1438C26.3484 23.6361 26.625 24.3038 26.625 25C26.625 25.6962 26.3484 26.3639 25.8562 26.8562C25.3639 27.3484 24.6962 27.625 24 27.625C23.3038 27.625 22.6361 27.3484 22.1438 26.8562C21.6516 26.3639 21.375 25.6962 21.375 25Z" fill="#131517"/>
<path fill-rule="evenodd" clip-rule="evenodd" d="M24.0007 14.7917C18.7343 14.7917 15.1865 17.9464 13.1273 20.6215L13.0912 20.6694C12.6245 21.2749 12.1963 21.8314 11.9058 22.4894C11.5943 23.1952 11.459 23.964 11.459 25C11.459 26.036 11.5943 26.8049 11.9058 27.5107C12.1975 28.1687 12.6257 28.7264 13.0912 29.3307L13.1285 29.3785C15.1865 32.0537 18.7343 35.2084 24.0007 35.2084C29.267 35.2084 32.8148 32.0537 34.874 29.3785L34.9102 29.3307C35.3768 28.7264 35.805 28.1687 36.0955 27.5107C36.407 26.8049 36.5423 26.036 36.5423 25C36.5423 23.964 36.407 23.1952 36.0955 22.4894C35.8038 21.8314 35.3757 21.2749 34.9102 20.6694L34.8728 20.6215C32.8148 17.9464 29.267 14.7917 24.0007 14.7917ZM14.5157 21.689C16.415 19.2192 19.509 16.5417 24.0007 16.5417C28.4923 16.5417 31.5852 19.2192 33.4857 21.689C33.999 22.354 34.2977 22.7507 34.4948 23.1964C34.6792 23.614 34.7923 24.1239 34.7923 25C34.7923 25.8762 34.6792 26.386 34.4948 26.8037C34.2977 27.2494 33.9978 27.646 33.4868 28.311C31.584 30.7809 28.4923 33.4584 24.0007 33.4584C19.509 33.4584 16.4162 30.7809 14.5157 28.311C14.0023 27.646 13.7037 27.2494 13.5065 26.8037C13.3222 26.386 13.209 25.8762 13.209 25C13.209 24.1239 13.3222 23.614 13.5065 23.1964C13.7037 22.7507 14.0047 22.354 14.5157 21.689Z" fill="#131517"/>
<defs>
<linearGradient id="paint0_linear_459_1134" x1="24.2247" y1="0.5" x2="24.2247" y2="48.9494" gradientUnits="userSpaceOnUse">
<stop stop-color="#E7FFBC"/>
<stop offset="1" stop-color="#76B900"/>
</linearGradient>
</defs>
</svg>
