<svg width="58" height="58" viewBox="0 0 58 58" fill="none" xmlns="http://www.w3.org/2000/svg">
<rect width="58" height="58" rx="13" fill="url(#paint0_linear_453_667)"/>
<path d="M23.7056 23.4375V20.9625C23.9598 20.9375 24.1889 20.9375 24.4452 20.9375C31.2577 20.7333 35.7223 26.8062 35.7223 26.8062C35.7223 26.8062 30.8994 33.4667 25.7223 33.4667C25.0306 33.4667 24.3681 33.3625 23.7056 33.1333V25.6062C26.3577 25.9396 26.8931 27.0854 28.4764 29.7396L32.0223 26.7542C32.0223 26.7542 29.4202 23.3625 25.0827 23.3625C24.6243 23.3625 24.1653 23.3875 23.7056 23.4375ZM23.7056 15.2229V18.9229L24.4452 18.8708C33.9119 18.5375 40.0869 26.6271 40.0869 26.6271C40.0869 26.6271 32.9931 35.2771 25.6181 35.2771C24.9763 35.2802 24.3357 35.2202 23.7056 35.0979V37.3958C24.216 37.4458 24.7514 37.4979 25.2869 37.4979C32.1514 37.4979 37.1264 33.9771 41.9494 29.8437C42.741 30.4812 46.0056 32.0375 46.6952 32.7C42.1264 36.5271 31.4619 39.6167 25.4139 39.6167C24.8511 39.6199 24.2887 39.5851 23.7306 39.5125V42.7792H49.8327V15.2229H23.7056ZM23.7056 33.1604V35.125C17.3514 33.9771 15.591 27.3687 15.591 27.3687C15.591 27.3687 18.6535 24 23.7056 23.4375V25.5833H23.6785C21.0264 25.25 18.9327 27.75 18.9327 27.75C18.9327 27.75 20.1348 31.9354 23.7056 33.1604ZM12.4243 27.0875C12.4243 27.0875 16.1764 21.525 23.7056 20.9625L23.7035 18.9479C15.3618 19.6104 8.16602 26.6542 8.16602 26.6542C8.16602 26.6542 12.2493 38.4667 23.7056 39.5375V37.3958C15.2848 36.35 12.4243 27.0875 12.4243 27.0875Z" fill="#131517"/>
<defs>
<linearGradient id="paint0_linear_453_667" x1="29" y1="0" x2="29" y2="58" gradientUnits="userSpaceOnUse">
<stop stop-color="#E7FFBC"/>
<stop offset="1" stop-color="#76B900"/>
</linearGradient>
</defs>
</svg>
