<svg width="58" height="58" viewBox="0 0 58 58" fill="none" xmlns="http://www.w3.org/2000/svg">
<rect width="58" height="58" rx="13" fill="url(#paint0_linear_453_669)"/>
<path d="M26 15.5H17C16.6022 15.5 16.2206 15.658 15.9393 15.9393C15.658 16.2206 15.5 16.6022 15.5 17V26C15.5 26.3978 15.658 26.7794 15.9393 27.0607C16.2206 27.342 16.6022 27.5 17 27.5H26C26.3978 27.5 26.7794 27.342 27.0607 27.0607C27.342 26.7794 27.5 26.3978 27.5 26V17C27.5 16.6022 27.342 16.2206 27.0607 15.9393C26.7794 15.658 26.3978 15.5 26 15.5ZM41 15.5H32C31.6022 15.5 31.2206 15.658 30.9393 15.9393C30.658 16.2206 30.5 16.6022 30.5 17V26C30.5 26.3978 30.658 26.7794 30.9393 27.0607C31.2206 27.342 31.6022 27.5 32 27.5H41C41.3978 27.5 41.7794 27.342 42.0607 27.0607C42.342 26.7794 42.5 26.3978 42.5 26V17C42.5 16.6022 42.342 16.2206 42.0607 15.9393C41.7794 15.658 41.3978 15.5 41 15.5ZM26 30.5H17C16.6022 30.5 16.2206 30.658 15.9393 30.9393C15.658 31.2206 15.5 31.6022 15.5 32V41C15.5 41.3978 15.658 41.7794 15.9393 42.0607C16.2206 42.342 16.6022 42.5 17 42.5H26C26.3978 42.5 26.7794 42.342 27.0607 42.0607C27.342 41.7794 27.5 41.3978 27.5 41V32C27.5 31.6022 27.342 31.2206 27.0607 30.9393C26.7794 30.658 26.3978 30.5 26 30.5ZM38 32H35V35H32V38H35V41H38V38H41V35H38V32Z" fill="#131517"/>
<defs>
<linearGradient id="paint0_linear_453_669" x1="29" y1="0" x2="29" y2="58" gradientUnits="userSpaceOnUse">
<stop stop-color="#E7FFBC"/>
<stop offset="1" stop-color="#76B900"/>
</linearGradient>
</defs>
</svg>
