<svg width="58" height="58" viewBox="0 0 58 58" fill="none" xmlns="http://www.w3.org/2000/svg">
<rect width="58" height="58" rx="13" fill="url(#paint0_linear_453_673)"/>
<path fill-rule="evenodd" clip-rule="evenodd" d="M39.3994 26.5734C38.986 22.3334 36.4794 15.6667 28.7327 15.6667C20.986 15.6667 18.4794 22.3334 18.066 26.5734C16.616 27.1237 15.6596 28.5159 15.666 30.0667V31.9334C15.666 33.9953 17.3375 35.6667 19.3994 35.6667C21.4612 35.6667 23.1327 33.9952 23.1327 31.9334V30.0667C23.126 28.5493 22.2047 27.1858 20.7994 26.6134C21.066 24.1601 22.3727 18.3334 28.7327 18.3334C35.0927 18.3334 36.386 24.1601 36.6527 26.6134C35.2502 27.1871 34.3336 28.5515 34.3327 30.0667V31.9334C34.3356 32.6359 34.5359 33.3234 34.9107 33.9176C35.2856 34.5117 35.8199 34.9884 36.4527 35.2934C35.8927 36.3467 34.466 37.7734 30.9594 38.2001C30.2584 37.1357 28.9022 36.7161 27.7226 37.1986C26.543 37.6811 25.8697 38.9309 26.1157 40.1814C26.3617 41.4319 27.4582 42.3334 28.7327 42.3334C29.2266 42.3307 29.7099 42.1908 30.129 41.9295C30.548 41.6682 30.8863 41.2957 31.106 40.8534C36.826 40.2001 38.6527 37.2534 39.226 35.5201C40.7771 35.0176 41.8203 33.5637 41.7994 31.9334V30.0667C41.8058 28.5159 40.8494 27.1237 39.3994 26.5734ZM20.466 31.9334C20.466 32.5225 19.9885 33.0001 19.3994 33.0001C18.8102 33.0001 18.3327 32.5226 18.3327 31.9334V30.0667C18.3317 29.926 18.3585 29.7864 18.4116 29.656C18.4647 29.5257 18.5431 29.4071 18.6422 29.3072C18.7414 29.2073 18.8594 29.128 18.9893 29.0739C19.1193 29.0198 19.2586 28.9919 19.3994 28.9919C19.5402 28.9919 19.6795 29.0198 19.8095 29.0739C19.9394 29.128 20.0574 29.2073 20.1565 29.3072C20.2557 29.4071 20.3341 29.5257 20.3872 29.656C20.4403 29.7864 20.4671 29.926 20.466 30.0667V31.9334ZM36.9994 30.0667C36.9994 29.4776 37.4769 29.0001 38.066 29.0001C38.6552 29.0001 39.1327 29.4776 39.1327 30.0667V31.9334C39.1327 32.5225 38.6552 33.0001 38.066 33.0001C37.4769 33.0001 36.9994 32.5226 36.9994 31.9334V30.0667Z" fill="#131517"/>
<defs>
<linearGradient id="paint0_linear_453_673" x1="29" y1="0" x2="29" y2="58" gradientUnits="userSpaceOnUse">
<stop stop-color="#E7FFBC"/>
<stop offset="1" stop-color="#76B900"/>
</linearGradient>
</defs>
</svg>
