<svg width="81" height="78" viewBox="0 0 81 78" fill="none" xmlns="http://www.w3.org/2000/svg">
<path d="M11.8048 58.1121C7.96524 54.0705 5.05255 49.5909 3.06674 44.6736C1.08093 39.7562 0.0866843 34.6705 0.0839898 29.4163C0.0812954 24.1621 1.07555 19.0764 3.06674 14.159C5.05793 9.24164 7.97063 4.76213 11.8048 0.720459L16.6548 5.57046C13.4215 8.80379 10.9965 12.5262 9.37982 16.7376C7.76316 20.949 6.95482 25.1752 6.95482 29.4163C6.95482 33.6573 7.76316 37.8849 9.37982 42.099C10.9965 46.3131 13.4215 50.0342 16.6548 53.2621L11.8048 58.1121ZM21.5048 48.4121C18.8777 45.785 16.8744 42.8212 15.4949 39.5205C14.1153 36.2198 13.4242 32.8517 13.4215 29.4163C13.4188 25.9809 14.1099 22.6128 15.4949 19.3121C16.8798 16.0114 18.8831 13.0475 21.5048 10.4205L26.3548 15.2705C24.334 17.0892 22.8184 19.2448 21.808 21.7371C20.7975 24.2295 20.2923 26.7892 20.2923 29.4163C20.2923 31.8413 20.7975 34.3 21.808 36.7923C22.8184 39.2847 24.334 41.5413 26.3548 43.5621L21.5048 48.4121ZM20.2923 77.9163L33.9329 36.9944C32.8552 36.0514 31.9956 34.9399 31.3544 33.66C30.7131 32.3802 30.3938 30.9656 30.3965 29.4163C30.3965 26.5871 31.3732 24.1958 33.3267 22.2423C35.2802 20.2889 37.6715 19.3121 40.5007 19.3121C43.3298 19.3121 45.7211 20.2889 47.6746 22.2423C49.6281 24.1958 50.6048 26.5871 50.6048 29.4163C50.6048 30.9656 50.2842 32.3802 49.6429 33.66C49.0016 34.9399 48.1435 36.0514 47.0684 36.9944L60.709 77.9163H52.6257L49.9986 69.833H31.1038L28.3757 77.9163H20.2923ZM33.7309 61.7496H47.2705L40.5007 41.5413L33.7309 61.7496ZM59.4965 48.4121L54.6465 43.5621C56.6673 41.7434 58.183 39.5878 59.1934 37.0955C60.2038 34.6031 60.709 32.0434 60.709 29.4163C60.709 26.9913 60.2038 24.5326 59.1934 22.0403C58.183 19.5479 56.6673 17.2913 54.6465 15.2705L59.4965 10.4205C62.1236 13.0475 64.077 16.0114 65.3569 19.3121C66.6368 22.6128 67.3778 25.9809 67.5798 29.4163C67.5798 32.8517 66.8901 36.2198 65.5105 39.5205C64.1309 42.8212 62.1263 45.785 59.4965 48.4121ZM69.1965 58.1121L64.3465 53.2621C67.5798 50.0288 70.0048 46.3078 71.6215 42.099C73.2382 37.8903 74.0465 33.6627 74.0465 29.4163C74.0465 25.1698 73.2382 20.9436 71.6215 16.7376C70.0048 12.5316 67.5798 8.80918 64.3465 5.57046L69.1965 0.720459C73.0361 4.76213 75.9501 9.24164 77.9386 14.159C79.9271 19.0764 80.92 24.1621 80.9173 29.4163C80.9146 34.6705 79.9716 39.7562 78.0882 44.6736C76.2047 49.5909 73.2409 54.0705 69.1965 58.1121Z" fill="url(#paint0_linear_477_1221)"/>
<defs>
<linearGradient id="paint0_linear_477_1221" x1="40.5007" y1="0.720459" x2="40.5007" y2="77.9163" gradientUnits="userSpaceOnUse">
<stop stop-color="#E7FFBC"/>
<stop offset="1" stop-color="#76B900"/>
</linearGradient>
</defs>
</svg>
